# Blender 4.0.1
# www.blender.org
o Cube.003
v -0.363814 0.000000 0.721906
v -0.363814 1.876956 0.721906
v -0.363814 0.000000 -0.721906
v -0.363814 1.876956 -0.721906
v 0.363814 0.000000 0.721906
v 0.363814 1.876956 0.721906
v 0.363814 0.000000 -0.721906
v 0.363814 1.876956 -0.721906
v -0.363814 0.999022 0.721906
v -0.363814 0.999022 -0.721906
v 0.363814 0.999022 -0.721906
v 0.363814 0.999022 0.721906
v 0.121271 0.000000 -0.721906
v -0.121271 0.000000 -0.721906
v -0.121271 1.876956 -0.721906
v 0.121271 1.876956 -0.721906
v -0.121271 0.000000 0.721906
v 0.121271 0.000000 0.721906
v 0.121271 1.876956 0.721906
v -0.121271 1.876956 0.721906
v 0.121271 0.999022 0.721906
v -0.121271 0.999022 0.721906
v -0.121271 0.999022 -0.721906
v 0.121271 0.999022 -0.721906
vn -1.0000 -0.0000 -0.0000
vn -0.0000 -0.0000 -1.0000
vn 1.0000 -0.0000 -0.0000
vn -0.0000 -0.0000 1.0000
vn -0.0000 1.0000 -0.0000
vt 0.000000 0.982418
vt 0.000000 0.731265
vt 0.700412 0.731265
vt 0.700412 0.982418
vt 1.000000 0.615459
vt 0.649887 0.615459
vt 0.649887 0.538618
vt 1.000000 0.538618
vt 0.700412 0.307844
vt 0.700412 0.576987
vt -0.000000 0.576987
vt -0.000000 0.307844
vt 0.700412 0.692140
vt 0.700412 0.768947
vt 0.000000 0.768947
vt 0.000000 0.692140
vt 0.099463 0.000310
vt 0.099463 0.307678
vt 0.001240 0.307678
vt 0.001240 0.000310
vt 0.700412 0.001580
vt -0.000000 0.001580
vt 0.600964 0.000310
vt 0.600964 0.307678
vt 0.699044 0.307678
vt 0.699044 0.000310
vt 0.000000 1.308515
vt 0.000000 1.022723
vt 0.700412 1.022723
vt 0.700412 1.308515
vt 0.700412 0.538525
vt 0.700412 0.615333
vt 0.000000 0.615333
vt -0.000000 0.538525
vt 1.000000 0.769141
vt 0.649888 0.769141
vt 0.649888 0.692300
vt 1.000000 0.692300
s 0
f 9/1/1 2/2/1 4/3/1 10/4/1
f 24/5/2 16/6/2 8/7/2 11/8/2
f 11/9/3 8/10/3 6/11/3 12/12/3
f 22/5/4 20/6/4 2/7/4 9/8/4
f 15/13/5 4/14/5 2/15/5 20/16/5
f 17/17/4 22/18/4 9/19/4 1/20/4
f 7/21/3 11/9/3 12/12/3 5/22/3
f 13/23/2 24/24/2 11/25/2 7/26/2
f 1/27/1 9/28/1 10/29/1 3/30/1
f 3/20/2 10/19/2 23/18/2 14/17/2
f 5/26/4 12/25/4 21/24/4 18/23/4
f 8/31/5 16/32/5 19/33/5 6/34/5
f 16/32/5 15/13/5 20/16/5 19/33/5
f 12/35/4 6/36/4 19/37/4 21/38/4
f 21/38/4 19/37/4 20/6/4 22/5/4
f 10/35/2 4/36/2 15/37/2 23/38/2
f 23/38/2 15/37/2 16/6/2 24/5/2
