# Blender 4.0.1
# www.blender.org
o Plane
v 0.000000 0.000000 0.374511
v 6.206738 0.000000 1.150298
v 0.000000 0.000000 -0.374511
v 6.253077 0.000000 0.402711
v 0.318935 0.000000 0.386850
v 0.624756 0.000000 0.430378
v 0.926493 0.000000 0.508159
v 1.227379 0.000000 0.617172
v 1.539787 0.000000 0.757019
v 1.949637 0.000000 0.907978
v 2.489369 0.000000 0.854490
v 2.898450 0.000000 0.598911
v 3.178737 0.000000 0.309523
v 3.404839 0.000000 0.044663
v 3.615547 0.000000 -0.176032
v 3.816969 0.000000 -0.316975
v 4.013022 0.000000 -0.371417
v 4.215877 0.000000 -0.339549
v 4.419116 0.000000 -0.227274
v 4.627654 0.000000 -0.030254
v 4.841588 0.000000 0.218395
v 5.075770 0.000000 0.496704
v 5.359953 0.000000 0.782308
v 5.736355 0.000000 1.030467
v 6.048337 0.000000 0.349511
v 5.843469 0.000000 0.210254
v 5.633923 0.000000 -0.002795
v 5.416130 0.000000 -0.262162
v 5.171405 0.000000 -0.545393
v 4.867708 0.000000 -0.827106
v 4.457149 0.000000 -1.048648
v 3.972530 0.000000 -1.119344
v 3.496126 0.000000 -0.993801
v 3.121814 0.000000 -0.739291
v 2.845959 0.000000 -0.454023
v 2.615901 0.000000 -0.184694
v 2.409489 0.000000 0.031503
v 2.232541 0.000000 0.150875
v 2.083343 0.000000 0.170987
v 1.838380 0.000000 0.070086
v 1.509592 0.000000 -0.076651
v 1.150177 -0.000000 -0.206683
v 0.772016 0.000000 -0.304025
v 0.382816 0.000000 -0.359443
v 0.000000 0.000000 0.000000
v 5.963199 0.000000 1.117049
v 6.229907 0.000000 0.776504
v 0.189700 0.000000 -0.370845
v 0.161456 0.000000 0.377645
v 0.472897 0.000000 0.404041
v 0.775784 0.000000 0.465110
v 1.077043 0.000000 0.559090
v 1.377366 0.000000 0.681499
v 1.729931 0.000000 0.836332
v 2.224251 0.000000 0.916892
v 2.715240 0.000000 0.738666
v 3.050087 0.000000 0.453128
v 3.294389 0.000000 0.173178
v 3.511440 0.000000 -0.074954
v 3.717811 0.000000 -0.256531
v 3.913072 0.000000 -0.358110
v 4.114455 0.000000 -0.363300
v 4.317022 0.000000 -0.296605
v 4.522768 0.000000 -0.135958
v 4.733359 0.000000 0.087700
v 4.955324 0.000000 0.355587
v 5.206645 0.000000 0.640489
v 5.535434 0.000000 0.915259
v 6.148225 0.000000 0.391240
v 5.946824 0.000000 0.289326
v 5.739020 0.000000 0.113601
v 5.526541 0.000000 -0.128919
v 5.300213 0.000000 -0.401902
v 5.028697 0.000000 -0.688289
v 4.677808 0.000000 -0.953010
v 4.219333 0.000000 -1.104943
v 3.724746 0.000000 -1.083070
v 3.295409 0.000000 -0.875086
v 2.973478 0.000000 -0.596136
v 2.727386 -0.000000 -0.316252
v 2.510509 0.000000 -0.066381
v 2.315427 0.000000 0.105275
v 2.159589 0.000000 0.170666
v 1.971286 0.000000 0.127261
v 1.682399 0.000000 -0.002597
v 1.332307 0.000000 -0.145093
v 0.963218 0.000000 -0.260081
v 0.577852 0.000000 -0.337591
v 0.350876 0.000000 0.013704
v 0.698386 0.000000 0.063177
v 1.038335 0.000000 0.150738
v 1.368485 0.000000 0.270261
v 1.689084 0.000000 0.413552
v 2.016490 0.000000 0.539483
v 2.360955 0.000000 0.502682
v 2.653969 0.000000 0.315207
v 2.897319 0.000000 0.062414
v 3.125399 0.000000 -0.204680
v 3.368680 0.000000 -0.457662
v 3.656547 0.000000 -0.655388
v 3.992776 0.000000 -0.745381
v 4.336513 0.000000 -0.694098
v 4.643412 0.000000 -0.527190
v 4.899529 0.000000 -0.287824
v 5.128859 0.000000 -0.021884
v 5.354846 0.000000 0.246955
v 5.601711 0.000000 0.496281
v 5.892346 0.000000 0.689989
v 5.741129 0.000000 0.602293
v 5.472833 0.000000 0.377045
v 5.240932 0.000000 0.113334
v 5.016786 0.000000 -0.157101
v 4.775733 0.000000 -0.412123
v 4.497415 0.000000 -0.624807
v 4.166894 0.000000 -0.734121
v 3.818909 0.000000 -0.720590
v 3.506610 0.000000 -0.565809
v 3.242459 0.000000 -0.335545
v 3.010887 0.000000 -0.071537
v 2.780298 0.000000 0.193373
v 2.515333 0.000000 0.421970
v 2.191920 0.000000 0.543779
v 1.850609 0.000000 0.481797
v 1.529883 0.000000 0.339451
v 1.204674 0.000000 0.206998
v 0.869501 0.000000 0.102514
v 0.525374 0.000000 0.033225
v 0.175578 0.000000 0.003400
v 6.055712 0.000000 0.754145
vn -0.0000 1.0000 -0.0000
vt 0.976190 0.500000
vt 1.000000 0.500000
vt 1.000000 1.000000
vt 0.976190 1.000000
vt 0.023810 0.500000
vt 0.047619 0.500000
vt 0.047619 1.000000
vt 0.023810 1.000000
vt 0.071429 0.500000
vt 0.095238 0.500000
vt 0.095238 1.000000
vt 0.071429 1.000000
vt 0.119048 0.500000
vt 0.142857 0.500000
vt 0.142857 1.000000
vt 0.119048 1.000000
vt 0.166667 0.500000
vt 0.190476 0.500000
vt 0.190476 1.000000
vt 0.166667 1.000000
vt 0.214286 0.500000
vt 0.238095 0.500000
vt 0.238095 1.000000
vt 0.214286 1.000000
vt 0.261905 0.500000
vt 0.285714 0.500000
vt 0.285714 1.000000
vt 0.261905 1.000000
vt 0.309524 0.500000
vt 0.333333 0.500000
vt 0.333333 1.000000
vt 0.309524 1.000000
vt 0.357143 0.500000
vt 0.380952 0.500000
vt 0.380952 1.000000
vt 0.357143 1.000000
vt 0.404762 0.500000
vt 0.428571 0.500000
vt 0.428571 1.000000
vt 0.404762 1.000000
vt 0.452381 0.500000
vt 0.476190 0.500000
vt 0.476190 1.000000
vt 0.452381 1.000000
vt 0.500000 0.500000
vt 0.523810 0.500000
vt 0.523810 1.000000
vt 0.500000 1.000000
vt 0.547619 0.500000
vt 0.571429 0.500000
vt 0.571429 1.000000
vt 0.547619 1.000000
vt 0.595238 0.500000
vt 0.619048 0.500000
vt 0.619048 1.000000
vt 0.595238 1.000000
vt 0.642857 0.500000
vt 0.666667 0.500000
vt 0.666667 1.000000
vt 0.642857 1.000000
vt 0.690476 0.500000
vt 0.714286 0.500000
vt 0.714286 1.000000
vt 0.690476 1.000000
vt 0.738095 0.500000
vt 0.761905 0.500000
vt 0.761905 1.000000
vt 0.738095 1.000000
vt 0.785714 0.500000
vt 0.809524 0.500000
vt 0.809524 1.000000
vt 0.785714 1.000000
vt 0.833333 0.500000
vt 0.857143 0.500000
vt 0.857143 1.000000
vt 0.833333 1.000000
vt 0.880952 0.500000
vt 0.904762 0.500000
vt 0.904762 1.000000
vt 0.880952 1.000000
vt 0.928571 0.500000
vt 0.952381 0.500000
vt 0.952381 1.000000
vt 0.928571 1.000000
vt 0.904762 0.000000
vt 0.928571 0.000000
vt 0.952381 0.000000
vt 0.857143 0.000000
vt 0.880952 0.000000
vt 0.809524 0.000000
vt 0.833333 0.000000
vt 0.761905 0.000000
vt 0.785714 0.000000
vt 0.714286 0.000000
vt 0.738095 0.000000
vt 0.666667 0.000000
vt 0.690476 0.000000
vt 0.619048 0.000000
vt 0.642857 0.000000
vt 0.571429 0.000000
vt 0.595238 0.000000
vt 0.523810 0.000000
vt 0.547619 0.000000
vt 0.476190 0.000000
vt 0.500000 0.000000
vt 0.428571 0.000000
vt 0.452381 0.000000
vt 0.380952 0.000000
vt 0.404762 0.000000
vt 0.333333 0.000000
vt 0.357143 0.000000
vt 0.285714 0.000000
vt 0.309524 0.000000
vt 0.238095 0.000000
vt 0.261905 0.000000
vt 0.190476 0.000000
vt 0.214286 0.000000
vt 0.142857 0.000000
vt 0.166667 0.000000
vt 0.095238 0.000000
vt 0.119048 0.000000
vt 0.047619 0.000000
vt 0.071429 0.000000
vt 0.000000 0.500000
vt 0.000000 1.000000
vt 0.000000 0.000000
vt 0.023810 0.000000
vt 0.976190 0.000000
vt 1.000000 0.000000
s 0
f 129/1/1 47/2/1 4/3/1 69/4/1
f 128/5/1 89/6/1 44/7/1 48/8/1
f 127/9/1 90/10/1 43/11/1 88/12/1
f 126/13/1 91/14/1 42/15/1 87/16/1
f 125/17/1 92/18/1 41/19/1 86/20/1
f 124/21/1 93/22/1 40/23/1 85/24/1
f 123/25/1 94/26/1 39/27/1 84/28/1
f 122/29/1 95/30/1 38/31/1 83/32/1
f 121/33/1 96/34/1 37/35/1 82/36/1
f 120/37/1 97/38/1 36/39/1 81/40/1
f 119/41/1 98/42/1 35/43/1 80/44/1
f 118/45/1 99/46/1 34/47/1 79/48/1
f 117/49/1 100/50/1 33/51/1 78/52/1
f 116/53/1 101/54/1 32/55/1 77/56/1
f 115/57/1 102/58/1 31/59/1 76/60/1
f 114/61/1 103/62/1 30/63/1 75/64/1
f 113/65/1 104/66/1 29/67/1 74/68/1
f 112/69/1 105/70/1 28/71/1 73/72/1
f 111/73/1 106/74/1 27/75/1 72/76/1
f 110/77/1 107/78/1 26/79/1 71/80/1
f 109/81/1 108/82/1 25/83/1 70/84/1
f 107/78/1 109/81/1 70/84/1 26/79/1
f 23/85/1 68/86/1 109/81/1 107/78/1
f 68/86/1 24/87/1 108/82/1 109/81/1
f 106/74/1 110/77/1 71/80/1 27/75/1
f 22/88/1 67/89/1 110/77/1 106/74/1
f 67/89/1 23/85/1 107/78/1 110/77/1
f 105/70/1 111/73/1 72/76/1 28/71/1
f 21/90/1 66/91/1 111/73/1 105/70/1
f 66/91/1 22/88/1 106/74/1 111/73/1
f 104/66/1 112/69/1 73/72/1 29/67/1
f 20/92/1 65/93/1 112/69/1 104/66/1
f 65/93/1 21/90/1 105/70/1 112/69/1
f 103/62/1 113/65/1 74/68/1 30/63/1
f 19/94/1 64/95/1 113/65/1 103/62/1
f 64/95/1 20/92/1 104/66/1 113/65/1
f 102/58/1 114/61/1 75/64/1 31/59/1
f 18/96/1 63/97/1 114/61/1 102/58/1
f 63/97/1 19/94/1 103/62/1 114/61/1
f 101/54/1 115/57/1 76/60/1 32/55/1
f 17/98/1 62/99/1 115/57/1 101/54/1
f 62/99/1 18/96/1 102/58/1 115/57/1
f 100/50/1 116/53/1 77/56/1 33/51/1
f 16/100/1 61/101/1 116/53/1 100/50/1
f 61/101/1 17/98/1 101/54/1 116/53/1
f 99/46/1 117/49/1 78/52/1 34/47/1
f 15/102/1 60/103/1 117/49/1 99/46/1
f 60/103/1 16/100/1 100/50/1 117/49/1
f 98/42/1 118/45/1 79/48/1 35/43/1
f 14/104/1 59/105/1 118/45/1 98/42/1
f 59/105/1 15/102/1 99/46/1 118/45/1
f 97/38/1 119/41/1 80/44/1 36/39/1
f 13/106/1 58/107/1 119/41/1 97/38/1
f 58/107/1 14/104/1 98/42/1 119/41/1
f 96/34/1 120/37/1 81/40/1 37/35/1
f 12/108/1 57/109/1 120/37/1 96/34/1
f 57/109/1 13/106/1 97/38/1 120/37/1
f 95/30/1 121/33/1 82/36/1 38/31/1
f 11/110/1 56/111/1 121/33/1 95/30/1
f 56/111/1 12/108/1 96/34/1 121/33/1
f 94/26/1 122/29/1 83/32/1 39/27/1
f 10/112/1 55/113/1 122/29/1 94/26/1
f 55/113/1 11/110/1 95/30/1 122/29/1
f 93/22/1 123/25/1 84/28/1 40/23/1
f 9/114/1 54/115/1 123/25/1 93/22/1
f 54/115/1 10/112/1 94/26/1 123/25/1
f 92/18/1 124/21/1 85/24/1 41/19/1
f 8/116/1 53/117/1 124/21/1 92/18/1
f 53/117/1 9/114/1 93/22/1 124/21/1
f 91/14/1 125/17/1 86/20/1 42/15/1
f 7/118/1 52/119/1 125/17/1 91/14/1
f 52/119/1 8/116/1 92/18/1 125/17/1
f 90/10/1 126/13/1 87/16/1 43/11/1
f 6/120/1 51/121/1 126/13/1 90/10/1
f 51/121/1 7/118/1 91/14/1 126/13/1
f 89/6/1 127/9/1 88/12/1 44/7/1
f 5/122/1 50/123/1 127/9/1 89/6/1
f 50/123/1 6/120/1 90/10/1 127/9/1
f 45/124/1 128/5/1 48/8/1 3/125/1
f 1/126/1 49/127/1 128/5/1 45/124/1
f 49/127/1 5/122/1 89/6/1 128/5/1
f 108/82/1 129/1/1 69/4/1 25/83/1
f 24/87/1 46/128/1 129/1/1 108/82/1
f 46/128/1 2/129/1 47/2/1 129/1/1
