# Blender 4.0.1
# www.blender.org
o Cube.006
v -1.506870 0.047830 1.792598
v 0.462795 1.171150 -0.575054
v 0.513960 0.321208 -0.394306
v 1.742262 0.762339 -1.385611
v -1.015625 0.047830 1.515192
v -0.254794 0.202968 -1.821157
v -1.042808 0.301570 -1.266858
v -0.691945 0.257668 -1.513659
v -0.707172 0.047830 1.143555
v -0.194959 0.047830 1.329432
v -0.661981 0.484920 0.721812
v -0.489486 0.527079 -0.617629
v 0.604930 0.116056 1.827490
v 0.437954 0.497450 -1.086401
v -1.886459 -0.011514 -0.734835
v -0.064963 0.289535 0.772489
v -0.485257 1.164442 0.366458
v 1.554508 1.078776 1.446383
v 1.642670 -0.048629 1.555289
v -0.342495 1.070134 0.811186
v 1.137245 -0.022031 0.930947
v -0.809296 1.169475 0.564457
v -0.312721 0.423934 -1.045450
v -0.139640 0.116095 -0.143648
v 0.830992 1.588928 0.802363
v 1.717303 -0.010081 -0.245204
v -1.837573 0.002169 0.333349
v -1.711894 0.044786 -0.312591
v -1.748395 0.047830 1.441447
v -0.403115 0.058079 -1.301038
v 1.453587 0.058079 -1.678649
v 0.588018 1.466316 0.498414
v -0.324230 1.544268 -0.816920
v -0.827710 1.657798 -1.063622
v -0.725015 1.781359 -0.905488
v 0.483941 1.483220 -0.331869
v 1.030394 1.126954 -0.235361
v -1.067437 0.717607 0.883436
v 0.408152 1.850151 -0.426893
v 0.083275 -0.068052 -0.017359
v -0.208350 0.635423 1.536496
v -0.910858 0.669584 0.968658
v 0.010313 0.724403 -0.708056
v 0.084341 0.769781 -1.183154
v -0.779675 0.402584 -0.281370
v -1.471974 0.143563 -0.565014
v -1.851037 0.031946 -1.583811
v -0.322343 0.614739 -1.267345
v 0.245382 0.047830 1.192032
v -1.009945 0.047830 0.345890
v -0.840767 1.107527 -0.492075
v -0.434768 1.162005 -0.661531
v -0.356683 0.809231 -1.094808
v 0.041029 0.938334 -1.177262
v 1.597705 0.058079 -1.270852
v 0.111147 0.058079 -0.182567
v -0.110376 0.058079 -0.552526
v 0.512728 0.890855 0.159493
v 0.501200 0.011442 0.145254
v 0.125909 0.966997 -0.249999
v 0.648009 1.667090 -0.582090
v 0.626863 1.355021 -0.825275
v -1.748395 0.399024 1.441447
v -1.506870 0.399024 1.792598
v -2.065439 0.268056 0.306556
v -1.939760 0.310674 -0.339383
v -0.190189 0.735375 -1.151882
v 0.636492 0.632649 -0.500738
v -1.015625 0.399024 1.515192
v -0.965444 1.350767 -0.712591
v -0.559445 1.405245 -0.882046
v -1.167485 0.544811 -1.487374
v -0.816622 0.500908 -1.734174
v -0.379471 0.446208 -2.041672
v -0.707172 0.399024 1.143555
v -0.194959 0.399024 1.329432
v 0.245382 0.399024 1.192032
v -0.550153 0.795586 0.602153
v -0.799030 0.980249 0.848998
v 0.785690 0.890855 -0.061479
v 1.827470 1.078775 1.225411
v 0.195103 0.242614 -0.137019
v 1.398773 -0.129209 -0.332863
v 1.423732 0.643210 -1.473271
v -0.616591 0.854265 -0.606183
v -0.906780 0.729769 -0.269924
v -1.599079 0.470749 -0.553569
v -0.160162 1.728139 -1.067141
v -0.096523 0.946089 1.416836
v 0.046865 0.600201 0.652830
v -0.663642 1.841669 -1.313843
v 0.602021 0.681320 -1.336622
v -1.295303 0.983495 0.856644
v -0.713123 1.430329 0.339666
v -2.013564 0.315671 -0.723389
v 1.915633 -0.048629 1.334317
v -0.219962 1.381575 0.704754
v 1.410207 -0.022031 0.709975
v 0.774163 0.011442 -0.075719
v -0.686764 1.480916 0.458026
v -0.110376 0.409272 -0.552526
v -0.403115 0.409272 -1.301038
v 1.453587 0.409272 -1.678649
v 0.899434 1.354427 0.380779
v 0.916346 0.004167 1.709855
v 0.512462 1.469799 0.714703
v 0.437325 0.855108 -0.367635
v 0.171776 0.004206 -0.261283
v 0.180286 2.116039 -0.453686
v -1.009945 0.399024 0.345890
v 1.597705 0.409272 -1.270852
v 0.111146 0.409272 -0.182567
v -0.560947 1.965230 -1.155710
v 1.194461 1.310824 -0.485582
v -0.116792 1.051589 -0.696610
v -0.042764 1.096967 -1.171708
v -1.978142 0.359131 -1.572365
v -0.449448 0.941925 -1.255899
v -0.481360 1.052472 -1.315323
v -0.083648 1.181575 -1.397777
v 0.221217 1.330045 0.344412
v 0.378566 1.033900 0.877998
v 1.233467 1.226265 0.954443
v -0.448365 0.847830 0.804054
v -0.116823 1.364702 0.140694
v 0.139974 1.618058 0.528220
v -0.198065 1.652715 0.324501
v 1.152224 1.514278 1.138250
v -0.529608 1.135843 0.987861
v 0.297323 1.321914 1.061805
vn -0.0000 -1.0000 -0.0000
vn 0.9070 0.3392 0.2496
vn -0.3184 -0.8846 0.3407
vn -0.4672 -0.5236 0.7125
vn 0.6488 -0.7571 0.0763
vn 0.3619 -0.9316 -0.0326
vn 0.3550 -0.6926 0.6279
vn -0.3489 -0.8868 0.3031
vn -0.7772 -0.0000 0.6292
vn -0.8867 0.3186 0.3350
vn -0.0000 1.0000 -0.0000
vn -0.9070 -0.3392 -0.2496
vn 0.3184 0.8846 -0.3407
vn 0.4672 0.5236 -0.7125
vn -0.6488 0.7571 -0.0763
vn -0.3619 0.9316 0.0326
vn -0.3550 0.6926 -0.6279
vn 0.3489 0.8868 -0.3031
vn 0.7772 -0.0000 -0.6292
vn 0.8867 -0.3186 -0.3350
vn -0.8976 0.2232 -0.3802
vn 0.5167 -0.4518 -0.7273
vn -0.0562 0.6546 0.7539
vn 0.4622 0.6250 0.6291
vn 0.4917 -0.0000 0.8708
vn 0.8889 0.0420 -0.4563
vn -0.0208 -0.9995 -0.0257
vn 0.1876 0.7108 0.6780
vn -0.8580 -0.0000 0.5137
vn -0.2135 0.8812 -0.4218
vn -0.9178 -0.1304 0.3750
vn -0.6291 0.0208 -0.7771
vn -0.3552 -0.0060 -0.9348
vn -0.4603 -0.7141 -0.5274
vn -0.2980 -0.9479 0.1126
vn 0.7695 -0.0000 0.6387
vn -0.0208 -0.5559 0.8310
vn -0.3411 -0.0000 0.9400
vn 0.3980 0.4231 0.8140
vn 0.2979 -0.0000 0.9546
vn -0.3970 -0.2513 0.8827
vn -0.7099 -0.0156 -0.7041
vn 0.5589 -0.0000 -0.8292
vn -0.0710 0.9936 -0.0877
vn 0.9429 -0.0000 -0.3332
vn 0.5907 -0.0000 0.8069
vn 0.4208 -0.7553 -0.5024
vn 0.0704 0.8092 -0.5833
vn 0.6879 0.2433 0.6838
vn 0.2585 0.6897 0.6764
vn -0.3231 -0.1582 0.9331
vn -0.7578 0.6523 -0.0176
vn 0.1540 0.7453 0.6487
vn 0.7370 -0.6757 -0.0133
vn 0.9328 -0.2285 0.2785
vn 0.3083 0.6588 0.6863
vn -0.4884 -0.5189 -0.7016
vn 0.0184 -0.0846 -0.9962
vn -0.5428 0.4648 0.6995
vn 0.1664 0.0302 0.9856
vn 0.6244 0.1233 0.7713
vn 0.9195 0.3510 0.1768
vn 0.7819 -0.0972 0.6158
vn -0.9313 -0.3598 -0.0573
vn 0.1655 0.0986 -0.9813
vn -0.3512 0.4235 0.8350
vn -0.8826 0.3248 -0.3400
vn -0.9313 -0.0000 0.3642
vn -0.8239 -0.0000 0.5667
vn -0.8292 -0.0000 -0.5589
vn -0.1993 -0.0000 -0.9799
vn -0.7367 -0.6501 -0.1862
vn 0.9246 0.3596 -0.1261
vn 0.2313 -0.8201 -0.5234
vn -0.2313 0.8201 0.5234
vn 0.4675 0.5655 -0.6795
vn 0.0432 -0.5288 0.8477
vn -0.9011 0.0222 -0.4331
vt 1.515502 1.509301
vt 1.515502 0.752366
vt 1.335476 0.896537
vt 1.269397 1.160851
vt 1.029112 1.184879
vt 0.776812 1.311029
vt 0.854905 1.509301
vt -0.500000 -0.500000
vt -0.500000 0.755079
vt 0.078181 -0.125631
vt 0.454946 0.118323
vt 0.894653 0.127483
vt 1.319973 0.136344
vt 1.139760 -0.278148
vt 0.968320 -0.178893
vt 1.500000 0.358608
vt 1.500000 -0.500000
vt 0.893467 -0.500000
vt 1.387392 0.363558
vt 1.013610 1.175578
vt 1.253895 1.151550
vt 1.319974 0.887236
vt 1.500000 0.743065
vt 0.988613 0.955340
vt 0.328797 1.500000
vt 0.839403 1.500000
vt 0.761310 1.301728
vt 0.424911 1.025399
vt 0.382116 1.236715
vt -0.500000 0.971336
vt -0.500000 1.540305
vt 0.328797 1.540305
vt 0.438210 0.623760
s 0
f 50/1/1 49/2/1 10/3/1 9/4/1 5/5/1 1/6/1 29/7/1
f 4/8/2 25/9/2 26/10/2
f 40/11/3 16/12/3 41/13/3 42/14/3 11/15/3
f 34/16/4 14/17/4 37/18/4 36/15/4 2/14/4 33/13/4 35/19/4
f 28/18/5 39/8/5 17/10/5 38/11/5 27/15/5
f 44/20/6 43/21/6 12/22/6 45/23/6 46/19/6 15/13/6 47/12/6 48/24/6
f 6/25/7 54/26/7 53/27/7 52/20/7 51/24/7 7/28/7 8/29/7
f 23/30/8 3/31/8 20/32/8 22/29/8
f 19/28/9 18/24/9 58/12/9 59/11/9 21/33/9
f 31/9/1 55/30/1 56/29/1 57/28/1 30/33/1
f 13/9/10 32/33/10 60/11/10 24/10/10
f 110/1/11 63/7/11 64/6/11 69/5/11 75/4/11 76/3/11 77/2/11
f 84/8/12 83/10/12 106/9/12
f 82/11/13 78/15/13 79/14/13 89/13/13 90/12/13
f 91/16/14 113/19/14 88/13/14 62/14/14 61/15/14 114/18/14 92/17/14
f 66/18/15 65/15/15 93/11/15 94/10/15 109/8/15
f 116/20/16 118/24/16 117/12/16 95/13/16 87/19/16 86/23/16 85/22/16 115/21/16
f 74/25/17 73/29/17 72/28/17 70/24/17 71/20/17 119/27/17 120/26/17
f 67/30/18 100/29/18 97/32/18 68/31/18
f 96/28/19 98/33/19 99/11/19 80/12/19 81/24/19
f 103/9/11 102/33/11 101/28/11 112/29/11 111/30/11
f 105/9/20 108/10/20 107/11/20 104/33/20
f 23/30/21 22/29/21 100/29/21 67/30/21
f 3/31/22 23/30/22 67/30/22 68/31/22
f 53/27/23 54/26/23 120/26/23 119/27/23
f 32/33/24 13/9/24 105/9/24 104/33/24
f 1/6/25 5/5/25 69/5/25 64/6/25
f 54/26/26 6/25/26 74/25/26 120/26/26
f 19/28/27 21/33/27 98/33/27 96/28/27
f 51/24/28 52/20/28 71/20/28 70/24/28
f 57/28/29 56/29/29 112/29/29 101/28/29
f 25/9/30 4/8/30 84/8/30 106/9/30
f 7/28/31 51/24/31 70/24/31 72/28/31
f 59/11/32 58/12/32 80/12/32 99/11/32
f 24/10/33 60/11/33 107/11/33 108/10/33
f 6/25/34 8/29/34 73/29/34 74/25/34
f 13/9/35 24/10/35 108/10/35 105/9/35
f 5/5/36 9/4/36 75/4/36 69/5/36
f 26/10/37 25/9/37 106/9/37 83/10/37
f 9/4/38 10/3/38 76/3/38 75/4/38
f 17/10/39 39/8/39 109/8/39 94/10/39
f 10/3/40 49/2/40 77/2/40 76/3/40
f 27/15/41 38/11/41 93/11/41 65/15/41
f 11/15/42 42/14/42 79/14/42 78/15/42
f 49/2/43 50/1/43 110/1/43 77/2/43
f 58/12/44 18/24/44 81/24/44 80/12/44
f 55/30/45 31/9/45 103/9/45 111/30/45
f 40/11/42 11/15/42 78/15/42 82/11/42
f 56/29/46 55/30/46 111/30/46 112/29/46
f 4/8/47 26/10/47 83/10/47 84/8/47
f 60/11/48 32/33/48 104/33/48 107/11/48
f 45/23/49 12/22/49 85/22/49 86/23/49
f 35/19/50 33/13/50 88/13/50 113/19/50
f 46/19/51 45/23/51 86/23/51 87/19/51
f 34/16/52 35/19/52 113/19/52 91/16/52
f 33/13/53 2/14/53 62/14/53 88/13/53
f 37/18/54 14/17/54 92/17/54 114/18/54
f 41/13/55 16/12/55 90/12/55 89/13/55
f 36/15/56 37/18/56 114/18/56 61/15/56
f 14/17/57 34/16/57 91/16/57 92/17/57
f 39/8/58 28/18/58 66/18/58 109/8/58
f 38/11/39 17/10/39 94/10/39 93/11/39
f 16/12/55 40/11/55 82/11/55 90/12/55
f 15/13/51 46/19/51 87/19/51 95/13/51
f 42/14/59 41/13/59 89/13/59 79/14/59
f 8/29/34 7/28/34 72/28/34 73/29/34
f 12/22/60 43/21/60 115/21/60 85/22/60
f 18/24/61 19/28/61 96/28/61 81/24/61
f 43/21/62 44/20/62 116/20/62 115/21/62
f 20/32/63 3/31/63 68/31/63 97/32/63
f 47/12/64 15/13/64 95/13/64 117/12/64
f 21/33/27 59/11/27 99/11/27 98/33/27
f 44/20/65 48/24/65 118/24/65 116/20/65
f 22/29/66 20/32/66 97/32/66 100/29/66
f 2/14/67 36/15/67 61/15/67 62/14/67
f 48/24/65 47/12/65 117/12/65 118/24/65
f 30/33/68 57/28/68 101/28/68 102/33/68
f 29/7/69 1/6/69 64/6/69 63/7/69
f 50/1/70 29/7/70 63/7/70 110/1/70
f 31/9/71 30/33/71 102/33/71 103/9/71
f 28/18/72 27/15/72 65/15/72 66/18/72
f 52/20/73 53/27/73 119/27/73 71/20/73
f 123/11/74 122/12/74 124/13/74 125/14/74 121/15/74
f 128/11/75 126/15/75 127/14/75 129/13/75 130/12/75
f 121/15/76 125/14/76 127/14/76 126/15/76
f 123/11/76 121/15/76 126/15/76 128/11/76
f 124/13/77 122/12/77 130/12/77 129/13/77
f 122/12/77 123/11/77 128/11/77 130/12/77
f 125/14/78 124/13/78 129/13/78 127/14/78
