# Blender 4.0.1
# www.blender.org
o Cube.001
v 0.500000 0.750000 -0.500000
v 0.500000 0.500000 -0.500000
v 0.250000 0.500000 -0.500000
v 0.500000 0.500000 -0.500000
v 0.500000 0.500000 -0.250000
v 0.250000 0.500000 -0.250000
v 0.500000 0.500000 0.500000
v -0.500000 0.500000 -0.500000
v -0.500000 0.750000 -0.500000
v 0.500000 0.750000 0.500000
v -0.500000 0.500000 0.500000
v -0.500000 0.750000 0.500000
v 0.250000 0.000000 -0.500000
v 0.500000 0.000000 -0.250000
v 0.500000 0.000000 -0.500000
v 0.250000 0.000000 -0.250000
v -0.250000 0.000000 0.250000
v -0.500000 0.000000 0.500000
v -0.500000 0.000000 0.250000
v -0.250000 0.000000 0.500000
v -0.250000 0.500000 0.250000
v -0.500000 0.500000 0.250000
v -0.500000 0.500000 0.500000
v -0.250000 0.500000 0.500000
v 0.250000 0.000000 0.250000
v 0.500000 0.000000 0.500000
v 0.250000 0.000000 0.500000
v 0.500000 0.000000 0.250000
v 0.250000 0.500000 0.250000
v 0.250000 0.500000 0.500000
v 0.500000 0.500000 0.500000
v 0.500000 0.500000 0.250000
v -0.250000 0.000000 -0.250000
v -0.500000 0.000000 -0.500000
v -0.250000 0.000000 -0.500000
v -0.500000 0.000000 -0.250000
v -0.250000 0.500000 -0.250000
v -0.250000 0.500000 -0.500000
v -0.500000 0.500000 -0.500000
v -0.500000 0.500000 -0.250000
vn 1.0000 -0.0000 -0.0000
vn -0.0000 -0.0000 -1.0000
vn -0.0000 -1.0000 -0.0000
vn -1.0000 -0.0000 -0.0000
vn -0.0000 -0.0000 1.0000
vn -0.0000 1.0000 -0.0000
vt 0.689746 0.648656
vt 0.689746 0.890369
vt 0.649461 0.890369
vt 0.649461 0.648656
vt 0.854690 0.181309
vt 0.868579 0.181309
vt 0.868579 0.847976
vt 0.854690 0.847976
vt 0.895929 0.181309
vt 0.868152 0.181309
vt 0.868152 0.847976
vt 0.895929 0.847976
vt 0.895929 0.598937
vt 0.868152 0.598937
vt 0.868152 0.619771
vt 0.895929 0.619771
vt 0.737956 0.807498
vt 0.880241 0.815996
vt 0.880241 0.090857
vt 0.737956 0.082359
vt 0.709579 0.890369
vt 0.629008 0.890369
vt 0.629008 0.648656
vt 0.709579 0.648656
vt 0.784818 0.557271
vt 0.812596 0.557271
vt 0.812596 0.536437
vt 0.784818 0.536437
vt 0.784818 0.847976
vt 0.812596 0.847976
vt 0.812596 0.181309
vt 0.784818 0.181309
vt 0.826912 0.181309
vt 0.813023 0.181309
vt 0.813023 0.847976
vt 0.826912 0.847976
vt 0.868152 0.536437
vt 0.868152 0.557271
vt 0.895929 0.557271
vt 0.895929 0.536437
vt 0.812596 0.619771
vt 0.812596 0.598937
vt 0.784818 0.598937
vt 0.784818 0.619771
vt 0.675000 1.000000
vt -0.000000 1.000000
vt -0.000000 0.000000
vt 0.675000 0.000000
s 0
f 2/1/1 1/2/1 10/3/1 7/4/1
f 14/5/1 15/6/1 4/7/1 5/8/1
f 15/9/2 13/10/2 3/11/2 4/12/2
f 14/13/3 16/14/3 13/15/3 15/16/3
f 12/17/4 9/18/4 8/19/4 11/20/4
f 10/21/5 12/22/5 11/23/5 7/24/5
f 5/12/5 6/11/5 16/10/5 14/9/5
f 3/7/4 13/6/4 16/5/4 6/8/4
f 2/1/2 8/1/2 9/2/2 1/2/2
f 19/25/3 17/26/3 20/27/3 18/28/3
f 22/29/2 21/30/2 17/31/2 19/32/2
f 19/33/4 18/34/4 23/35/4 22/36/4
f 18/32/5 20/31/5 24/30/5 23/29/5
f 24/35/1 20/34/1 17/33/1 21/36/1
f 27/37/3 25/38/3 28/39/3 26/40/3
f 30/35/4 29/36/4 25/33/4 27/34/4
f 27/10/5 26/9/5 31/12/5 30/11/5
f 26/34/1 28/33/1 32/36/1 31/35/1
f 32/12/2 28/9/2 25/10/2 29/11/2
f 35/41/3 33/42/3 36/43/3 34/44/3
f 38/7/1 37/8/1 33/5/1 35/6/1
f 35/31/2 34/32/2 39/29/2 38/30/2
f 34/6/4 36/5/4 40/8/4 39/7/4
f 40/29/5 36/32/5 33/31/5 37/30/5
f 7/12/3 11/29/3 8/7/3 2/7/3
f 10/45/6 1/46/6 9/47/6 12/48/6
