# Blender 4.0.1
# www.blender.org
o Cube
v 1.000000 1.250000 -2.000000
v 1.000000 1.000000 -2.000000
v 1.000000 1.250000 2.000000
v 1.000000 1.000000 2.000000
v -1.000000 1.250000 -2.000000
v -1.000000 1.000000 -2.000000
v -1.000000 1.250000 2.000000
v -1.000000 1.000000 2.000000
v 0.750000 0.000000 2.000000
v 0.750000 1.000000 2.000000
v 1.000000 0.000000 2.000000
v 1.000000 1.000000 2.000000
v 1.000000 0.000000 1.750000
v 1.000000 1.000000 1.750000
v -0.750000 0.000000 2.000000
v -0.750000 1.000000 2.000000
v -1.000000 0.000000 2.000000
v -1.000000 1.000000 2.000000
v -1.000000 0.000000 1.750000
v -1.000000 1.000000 1.750000
v 0.750000 0.000000 -2.000000
v 0.750000 1.000000 -2.000000
v 1.000000 0.000000 -2.000000
v 1.000000 1.000000 -2.000000
v 1.000000 0.000000 -1.750000
v 1.000000 1.000000 -1.750000
v -0.750000 0.000000 -2.000000
v -0.750000 1.000000 -2.000000
v -1.000000 0.000000 -2.000000
v -1.000000 1.000000 -2.000000
v -1.000000 0.000000 -1.750000
v -1.000000 1.000000 -1.750000
v 0.750000 0.000000 1.750000
v -0.750000 0.000000 1.750000
v 0.750000 0.000000 -1.750000
v -0.750000 0.000000 -1.750000
v 0.750000 1.000000 1.750000
v -0.750000 1.000000 1.750000
v 0.750000 1.000000 -1.750000
v -0.750000 1.000000 -1.750000
v 1.000000 1.250000 -2.000000
v 1.000000 1.000000 -2.000000
v 1.000000 1.250000 2.000000
v 1.000000 1.000000 2.000000
v -1.000000 1.250000 -2.000000
v -1.000000 1.000000 -2.000000
v -1.000000 1.250000 2.000000
v -1.000000 1.000000 2.000000
v 0.000000 1.000000 -2.000000
v 0.000000 1.250000 -2.000000
v 0.000000 1.250000 2.000000
v 0.000000 1.000000 2.000000
vn -0.0000 1.0000 -0.0000
vn -0.0000 -0.0000 1.0000
vn -1.0000 -0.0000 -0.0000
vn -0.0000 -1.0000 -0.0000
vn 1.0000 -0.0000 -0.0000
vn -0.0000 -0.0000 -1.0000
vt 0.000000 0.000000
vt 0.625000 0.000000
vt 0.625000 1.000000
vt 0.000000 1.000000
vt 0.691830 0.999797
vt 0.615332 0.999797
vt 0.615332 0.593547
vt 0.691830 0.593547
vt 0.692500 0.000000
vt 0.615000 0.000000
vt 0.615000 1.000000
vt 0.692500 1.000000
vt 0.615000 0.000000
vt 0.692500 0.000000
vt 0.691830 0.000067
vt 0.615332 0.000067
vt 0.615332 0.406317
vt 0.691830 0.406317
vt 0.836336 0.816282
vt 0.836336 0.963076
vt 0.773442 0.963076
vt 0.773442 0.816282
vt 0.961899 0.816282
vt 0.961899 0.963076
vt 0.836111 0.963076
vt 0.836111 0.816282
vt 0.812122 0.784665
vt 0.775929 0.784850
vt 0.760097 0.965031
vt 0.812122 0.965334
vt 0.812035 0.784965
vt 0.812035 0.964931
vt 0.864477 0.784665
vt 0.828284 0.784850
vt 0.812452 0.965031
vt 0.864477 0.965334
vt 0.864391 0.784965
vt 0.864391 0.964931
vt 0.880727 0.784665
vt 0.864477 0.964992
vt 0.916821 0.964894
vt 0.916882 0.784853
vt 0.864914 0.964993
vt 0.880806 0.784964
vt 0.831055 0.784911
vt 0.916882 0.965296
vt 0.914192 0.784913
vt 0.812122 0.965030
vt 0.867558 0.963076
vt 0.930452 0.963076
vt 0.930452 0.816282
vt 0.867558 0.816282
vt 0.759766 0.965030
vt 0.778699 0.784911
vt 0.940434 0.926347
vt 0.940434 0.921462
vt 0.935549 0.921462
vt 0.935549 0.926347
vt 0.691830 0.406317
vt 0.615332 0.406317
vt 0.615332 0.000067
vt 0.691830 0.000067
vt 0.691830 0.593547
vt 0.615332 0.593547
vt 0.615332 0.999797
vt 0.691830 0.999797
s 0
f 1/1/1 5/2/1 7/3/1 3/4/1
f 44/5/2 43/6/2 51/7/2 52/8/2
f 8/9/3 7/10/3 5/11/3 6/12/3
f 6/1/4 2/2/4 4/3/4 8/4/4
f 2/13/5 1/14/5 3/12/5 4/11/5
f 46/15/6 45/16/6 50/17/6 49/18/6
f 13/19/5 14/20/5 12/21/5 11/22/5
f 11/23/2 12/24/2 10/25/2 9/26/2
f 19/27/3 17/28/3 18/29/3 20/30/3
f 17/28/2 15/31/2 16/32/2 18/29/2
f 25/33/5 23/34/5 24/35/5 26/36/5
f 23/34/6 21/37/6 22/38/6 24/35/6
f 31/39/3 32/40/3 30/41/3 29/42/3
f 29/42/6 30/41/6 28/43/6 27/44/6
f 21/37/4 23/34/4 25/33/4 35/45/4
f 28/43/5 40/46/5 36/47/5 27/44/5
f 32/40/2 31/39/2 36/47/2 40/46/2
f 22/38/3 21/37/3 35/45/3 39/48/3
f 26/36/2 39/48/2 35/45/2 25/33/2
f 10/49/3 37/50/3 33/51/3 9/52/3
f 14/24/6 13/23/6 33/26/6 37/25/6
f 38/53/6 34/54/6 19/27/6 20/30/6
f 16/32/5 15/31/5 34/54/5 38/53/5
f 19/27/4 34/54/4 15/31/4 17/28/4
f 31/39/4 29/42/4 27/44/4 36/47/4
f 13/55/4 11/56/4 9/57/4 33/58/4
f 52/59/2 51/60/2 47/61/2 48/62/2
f 49/63/6 50/64/6 41/65/6 42/66/6
