# Blender 4.0.1
# www.blender.org
o Cube.004
v 0.000000 -2.000000 2.000000
v 0.000000 2.000000 2.000000
v 0.000000 -2.000000 -2.000000
v 0.000000 2.000000 -2.000000
v 0.000000 -1.905760 -0.525572
v 0.000000 -1.713866 1.059643
v 0.000000 -1.371793 0.976211
v 0.000000 -0.996347 1.735446
v 0.000000 -0.429007 1.393373
v 0.000000 -0.111964 1.768819
v 0.000000 0.371945 1.468462
v 0.000000 1.022717 1.685386
v 0.000000 1.448222 1.093016
v 0.000000 1.525093 0.527187
v 0.000000 1.146942 -0.338979
v 0.000000 1.413423 -1.089293
v 0.000000 1.200821 -1.436864
v 0.000000 0.348905 -1.333633
v 0.000000 0.054901 -1.735342
v 0.000000 -0.645931 -1.443328
v 0.000000 -1.288360 -1.510074
v 0.000000 -1.371793 -0.926048
v 0.260246 -1.905760 -0.525572
v 0.260246 -1.713866 1.059643
v 0.260246 -1.371793 0.976211
v 0.260246 -0.996347 1.735446
v 0.260246 -0.429007 1.393373
v 0.260246 -0.111964 1.768819
v 0.260246 0.371945 1.468462
v 0.260246 1.022717 1.685386
v 0.260246 1.448222 1.093016
v 0.260246 1.525093 0.527187
v 0.260246 1.146942 -0.338979
v 0.260246 1.413423 -1.089293
v 0.260246 1.200821 -1.436864
v 0.260246 0.348905 -1.333633
v 0.260246 0.054901 -1.735342
v 0.260246 -0.645931 -1.443328
v 0.260246 -1.288360 -1.510074
v 0.260246 -1.371793 -0.926048
vn -1.0000 -0.0000 -0.0000
vn -0.0000 -0.9165 0.4001
vn -0.0000 0.8964 -0.4433
vn -0.0000 0.6000 0.8000
vn -0.0000 -0.9423 -0.3347
vn -0.0000 -0.5163 -0.8564
vn -0.0000 -0.8531 0.5218
vn -0.0000 0.7640 -0.6452
vn -0.0000 0.1203 0.9927
vn -0.0000 -0.5274 -0.8496
vn -0.0000 -0.8070 0.5906
vn -0.0000 0.3162 -0.9487
vn -0.0000 0.3846 0.9231
vn -0.0000 -0.8122 -0.5834
vn -0.0000 0.9928 -0.1202
vn -0.0000 -0.1033 0.9946
vn -0.0000 -0.9909 -0.1346
vn -0.0000 -0.2370 -0.9715
vn -0.0000 0.9899 0.1414
vt 1.500000 1.500000
vt -0.500000 1.500000
vt 0.762786 1.452880
vt 0.236406 -0.262546
vt -0.046508 -0.224111
vt -0.500000 -0.500000
vt 0.669489 -0.073471
vt -0.367723 0.998174
vt 0.011895 1.185896
vt 0.963024 1.185896
vt 1.044646 -0.206711
vt -0.196687 0.714504
vt 1.218432 -0.100410
vt -0.384409 0.555982
vt 1.166816 0.325548
vt -0.234231 0.314028
vt 1.367671 0.472549
vt -0.342693 -0.011358
vt 1.221664 0.822965
vt -0.029822 1.356933
vt 1.255037 1.144180
vt 1.500000 -0.500000
s 0
f 3/1/1 1/2/1 5/3/1
f 14/4/1 13/5/1 2/6/1
f 15/7/2 32/4/2 14/4/2
f 8/8/3 25/9/3 7/9/3
f 5/3/4 40/10/4 22/10/4
f 16/11/5 33/7/5 15/7/5
f 9/12/6 26/8/6 8/8/6
f 17/13/7 34/11/7 16/11/7
f 10/14/8 27/12/8 9/12/8
f 18/15/9 35/13/9 17/13/9
f 11/16/10 28/14/10 10/14/10
f 19/17/11 36/15/11 18/15/11
f 12/18/12 29/16/12 11/16/12
f 20/19/13 37/17/13 19/17/13
f 13/5/14 30/18/14 12/18/14
f 6/20/15 23/3/15 5/3/15
f 21/21/16 38/19/16 20/19/16
f 14/4/17 31/5/17 13/5/17
f 7/9/18 24/20/18 6/20/18
f 22/10/19 39/21/19 21/21/19
f 1/2/1 8/8/1 6/20/1
f 8/8/1 7/9/1 6/20/1
f 20/19/1 19/17/1 21/21/1
f 19/17/1 3/1/1 21/21/1
f 5/3/1 22/10/1 3/1/1
f 22/10/1 21/21/1 3/1/1
f 1/2/1 6/20/1 5/3/1
f 19/17/1 18/15/1 17/13/1
f 16/11/1 15/7/1 14/4/1
f 12/18/1 11/16/1 10/14/1
f 10/14/1 9/12/1 8/8/1
f 8/8/1 1/2/1 10/14/1
f 1/2/1 2/6/1 10/14/1
f 4/22/1 3/1/1 19/17/1
f 4/22/1 19/17/1 17/13/1
f 12/18/1 10/14/1 2/6/1
f 4/22/1 17/13/1 16/11/1
f 4/22/1 16/11/1 14/4/1
f 13/5/1 12/18/1 2/6/1
f 4/22/1 14/4/1 2/6/1
f 15/7/2 33/7/2 32/4/2
f 8/8/3 26/8/3 25/9/3
f 5/3/4 23/3/4 40/10/4
f 16/11/5 34/11/5 33/7/5
f 9/12/6 27/12/6 26/8/6
f 17/13/7 35/13/7 34/11/7
f 10/14/8 28/14/8 27/12/8
f 18/15/9 36/15/9 35/13/9
f 11/16/10 29/16/10 28/14/10
f 19/17/11 37/17/11 36/15/11
f 12/18/12 30/18/12 29/16/12
f 20/19/13 38/19/13 37/17/13
f 13/5/14 31/5/14 30/18/14
f 6/20/15 24/20/15 23/3/15
f 21/21/16 39/21/16 38/19/16
f 14/4/17 32/4/17 31/5/17
f 7/9/18 25/9/18 24/20/18
f 22/10/19 40/10/19 39/21/19
