# Blender 4.0.1
# www.blender.org
o Plane.003
v -0.000000 1.089191 1.000000
v 0.000000 -1.089191 1.000000
v -0.000000 1.089191 -1.000000
v 0.000000 -1.089191 -1.000000
v 0.000000 -0.947826 1.000000
v 0.000000 -0.947826 -1.000000
v 0.455803 -1.089191 1.000000
v 0.012242 -0.000006 0.066722
v 0.012242 -0.000006 -0.066671
v 0.012242 0.136044 0.066722
v 0.012242 0.136044 -0.066671
v 0.455803 -1.089191 -1.000000
v 0.012242 -0.000006 0.866636
v 0.012242 0.136044 0.866636
v 0.455803 -0.947826 -1.000000
v 0.012242 -0.000006 -0.866712
v 0.012242 0.136044 -0.866712
v 0.012242 -0.816922 0.066722
v 0.012242 -0.816922 -0.066671
v 0.012242 -0.816922 0.866636
v 0.012242 -0.816922 -0.866712
v 0.012242 0.953141 0.066722
v 0.012242 0.953141 -0.066671
v 0.012242 0.953141 0.866636
v 0.012242 0.953141 -0.866712
v 0.116086 1.089191 -1.000000
v 0.116086 0.953141 1.000000
v 0.116086 1.089191 1.000000
v 0.116087 -0.947826 -1.000000
v 0.116087 -0.947826 1.000000
v 0.116087 -0.816922 -1.000000
v 0.116086 0.953141 0.066722
v 0.116086 0.953141 -0.066671
v 0.116087 -0.816922 1.000000
v 0.116087 -0.816922 0.066722
v 0.116087 -0.000006 0.066722
v 0.116087 -0.816922 -0.066671
v 0.116087 -0.000006 -0.066671
v 0.116087 -0.000006 0.866636
v 0.116087 -0.000006 -0.866712
v 0.116087 0.136044 0.066722
v 0.116087 0.136044 -0.066671
v 0.116086 0.953141 -1.000000
v 0.116087 0.136044 -0.866712
v 0.116087 0.136044 0.866636
v 0.116086 0.953141 0.866636
v 0.116087 -0.816922 0.866636
v 0.116086 0.953141 -0.866712
v 0.116087 -0.816922 -0.866712
v 0.455803 -0.947826 1.000000
vn -0.0000 -0.0000 1.0000
vn -0.0000 -0.0000 -1.0000
vn -0.0000 1.0000 -0.0000
vn 1.0000 -0.0000 -0.0000
vn -0.0000 -1.0000 -0.0000
vt 0.728942 0.038395
vt 0.066682 0.937545
vt 0.066682 0.562452
vt 0.466639 0.562452
vt 0.466639 0.937545
vt 0.000000 0.000000
vt 0.533335 0.937545
vt 0.533335 0.562452
vt 0.933356 0.562452
vt 0.933356 0.937545
vt 0.533335 0.499997
vt 0.533335 0.124987
vt 0.933356 0.124987
vt 0.933356 0.499997
vt 0.066682 0.499997
vt 0.066682 0.124987
vt 0.466639 0.124987
vt 0.466639 0.499997
vt 0.000000 0.937545
vt -0.000000 0.124987
vt 1.000000 0.124987
vt 1.000000 0.937545
vt 1.000000 1.000000
vt 0.000000 1.000000
vt -0.000000 0.064895
vt 1.000000 0.064894
vt 1.000000 -0.000000
s 0
f 16/1/1 21/1/1 49/1/1 40/1/1
f 19/1/2 9/1/2 38/1/2 37/1/2
f 8/1/1 18/1/1 35/1/1 36/1/1
f 18/1/3 20/1/3 47/1/3 35/1/3
f 24/2/4 14/3/4 10/4/4 22/5/4
f 1/6/3 28/6/3 26/6/3 3/6/3
f 17/1/3 11/1/3 42/1/3 44/1/3
f 1/6/1 5/6/1 30/6/1 34/6/1 27/6/1 28/6/1
f 9/1/5 16/1/5 40/1/5 38/1/5
f 23/7/4 11/8/4 17/9/4 25/10/4
f 10/1/3 14/1/3 45/1/3 41/1/3
f 5/6/1 2/6/1 7/6/1 50/6/1 30/6/1
f 24/1/5 22/1/5 32/1/5 46/1/5
f 9/11/4 19/12/4 21/13/4 16/14/4
f 21/1/3 19/1/3 37/1/3 49/1/3
f 13/15/4 20/16/4 18/17/4 8/18/4
f 6/6/2 3/6/2 26/6/2 43/6/2 31/6/2 29/6/2
f 23/1/5 25/1/5 48/1/5 33/1/5
f 20/1/2 13/1/2 39/1/2 47/1/2
f 45/3/4 39/15/4 36/18/4 41/4/4
f 27/19/4 34/20/4 47/16/4 39/15/4 45/3/4 46/2/4
f 4/6/2 6/6/2 29/6/2 15/6/2 12/6/2
f 44/9/4 40/14/4 49/13/4 31/21/4 43/22/4 48/10/4
f 42/8/4 38/11/4 40/14/4 44/9/4
f 41/4/4 36/18/4 35/17/4 37/12/4 38/11/4 42/8/4 33/7/4 32/5/4
f 32/5/4 33/7/4 48/10/4 43/22/4 26/23/4 28/24/4 27/19/4 46/2/4
f 22/1/1 10/1/1 41/1/1 32/1/1
f 11/1/2 23/1/2 33/1/2 42/1/2
f 13/1/5 8/1/5 36/1/5 39/1/5
f 14/1/2 24/1/2 46/1/2 45/1/2
f 25/1/1 17/1/1 44/1/1 48/1/1
f 30/25/3 50/25/3 15/26/3 29/26/3
f 12/27/4 15/26/4 50/25/4 7/6/4
f 2/6/5 4/6/5 12/6/5 7/6/5
f 29/26/4 31/21/4 49/13/4 37/12/4 35/17/4 47/16/4 34/20/4 30/25/4
